<svg xmlns="http://www.w3.org/2000/svg" width="1600" height="900" viewBox="0 0 1600 900">
  <defs><marker id="arrow" markerWidth="10" markerHeight="10" refX="8" refY="3" orient="auto" markerUnits="strokeWidth"><path d="M0,0 L0,6 L9,3 z" fill="#52616f"/></marker></defs>
  <rect width="100%" height="100%" fill="white"/>
  <text x="60" y="62" text-anchor="start" font-size="34" font-weight="700" fill="#17212b"><tspan x="60" dy="0">Nuogo Simplified System Architecture</tspan></text>
  <line x1="60" y1="94" x2="1540" y2="94" stroke="#c9d1d8" stroke-width="2"/>
  
  <g><rect x="80" y="150" width="1440" height="105" rx="12" fill="#eaf2fb" stroke="#2764a5" stroke-width="2.5"/><text x="800" y="193.5" text-anchor="middle" font-size="24" font-weight="600" fill="#17212b"><tspan x="800" dy="0">Presentation Layer  |  React + Vite</tspan><tspan x="800" dy="34">Authentication • Discovery • Preferences • ONE Travel Style • ONE Workspace</tspan></text></g>
  <line x1="800" y1="255" x2="800" y2="315" stroke="#52616f" stroke-width="3"  marker-end="url(#arrow)"/>
  <g><rect x="80" y="315" width="1440" height="125" rx="12" fill="#f5f7f8" stroke="#52616f" stroke-width="2.5"/><text x="800" y="368.5" text-anchor="middle" font-size="24" font-weight="600" fill="#17212b"><tspan x="800" dy="0">Application and Security Layer  |  Node.js + Express</tspan><tspan x="800" dy="34">Authentication • Authorization • Input Validation • Prompt Screening • Localization</tspan></text></g>
  <line x1="800" y1="440" x2="800" y2="500" stroke="#52616f" stroke-width="3"  marker-end="url(#arrow)"/>
  <g><rect x="80" y="500" width="1440" height="145" rx="12" fill="#e8f5f1" stroke="#237a66" stroke-width="2.5"/><text x="800" y="546.5" text-anchor="middle" font-size="23" font-weight="600" fill="#17212b"><tspan x="800" dy="0">Planning Services</tspan><tspan x="800" dy="34">Attraction Grounding • MANUAL/AUTO Resolution • LLM Drafting • Deterministic Validation</tspan><tspan x="800" dy="34">Hard-Budget Calculation • Optional Inactive Rainy-Day Contingency • Provenance</tspan></text></g>
  <g><rect x="80" y="720" width="420" height="105" rx="12" fill="#fff4d6" stroke="#9a6700" stroke-width="2.5"/><text x="290" y="746.5" text-anchor="middle" font-size="21" font-weight="600" fill="#17212b"><tspan x="290" dy="0">MySQL Persistence</tspan><tspan x="290" dy="34">Users • Trips • Runs • Legs • Provenance</tspan><tspan x="290" dy="34">Validation / Repairs • Cost References</tspan></text></g>
  <g><rect x="590" y="720" width="420" height="105" rx="12" fill="#f5f7f8" stroke="#52616f" stroke-width="2.5"/><text x="800" y="763.5" text-anchor="middle" font-size="22" font-weight="600" fill="#17212b"><tspan x="800" dy="0">Supporting Maintenance</tspan><tspan x="800" dy="34">Destinations • POIs • Cost References</tspan></text></g>
  <g><rect x="1100" y="720" width="200" height="105" rx="12" fill="#eaf2fb" stroke="#2764a5" stroke-width="2.5"/><text x="1200" y="763.5" text-anchor="middle" font-size="22" font-weight="600" fill="#17212b"><tspan x="1200" dy="0">OpenTripMap</tspan><tspan x="1200" dy="34">Grounded POIs</tspan></text></g>
  <g><rect x="1340" y="720" width="180" height="105" rx="12" fill="#eaf2fb" stroke="#2764a5" stroke-width="2.5"/><text x="1430" y="763.5" text-anchor="middle" font-size="21" font-weight="600" fill="#17212b"><tspan x="1430" dy="0">OpenRouter</tspan><tspan x="1430" dy="34">DeepSeek V3.1</tspan></text></g>
  <line x1="290" y1="720" x2="430" y2="645" stroke="#52616f" stroke-width="3"  marker-end="url(#arrow)"/><line x1="800" y1="720" x2="800" y2="645" stroke="#52616f" stroke-width="3"  marker-end="url(#arrow)"/><line x1="1200" y1="720" x2="1130" y2="645" stroke="#52616f" stroke-width="3"  marker-end="url(#arrow)"/><line x1="1430" y1="720" x2="1350" y2="645" stroke="#52616f" stroke-width="3"  marker-end="url(#arrow)"/>

  </svg>