<svg xmlns="http://www.w3.org/2000/svg" width="1600" height="900" viewBox="0 0 1600 900">
  <defs><marker id="arrow" markerWidth="10" markerHeight="10" refX="8" refY="3" orient="auto" markerUnits="strokeWidth"><path d="M0,0 L0,6 L9,3 z" fill="#52616f"/></marker></defs>
  <rect width="100%" height="100%" fill="white"/>
  <text x="60" y="62" text-anchor="start" font-size="34" font-weight="700" fill="#17212b"><tspan x="60" dy="0">Nuogo Conceptual Framework</tspan></text>
  <line x1="60" y1="94" x2="1540" y2="94" stroke="#c9d1d8" stroke-width="2"/>
  
  <g><rect x="70" y="155" width="300" height="120" rx="12" fill="#eaf2fb" stroke="#2764a5" stroke-width="2.5"/><text x="220" y="223" text-anchor="middle" font-size="27" font-weight="600" fill="#17212b"><tspan x="220" dy="0">User Requirements</tspan></text></g>
  <g><rect x="70" y="355" width="300" height="120" rx="12" fill="#e8f5f1" stroke="#237a66" stroke-width="2.5"/><text x="220" y="406" text-anchor="middle" font-size="27" font-weight="600" fill="#17212b"><tspan x="220" dy="0">Grounded Attraction</tspan><tspan x="220" dy="34">Data</tspan></text></g>
  <path d="M370 215 C430 215 430 310 485 310" fill="none" stroke="#52616f" stroke-width="3"  marker-end="url(#arrow)"/>
  <path d="M370 415 C430 415 430 310 485 310" fill="none" stroke="#52616f" stroke-width="3"  marker-end="url(#arrow)"/>
  <g><rect x="485" y="245" width="320" height="130" rx="12" fill="#f5f7f8" stroke="#52616f" stroke-width="2.5"/><text x="645" y="301" text-anchor="middle" font-size="27" font-weight="600" fill="#17212b"><tspan x="645" dy="0">MANUAL / AUTO</tspan><tspan x="645" dy="34">Preference Resolution</tspan></text></g>
  <line x1="805" y1="310" x2="895" y2="310" stroke="#52616f" stroke-width="3"  marker-end="url(#arrow)"/>
  <g><rect x="895" y="245" width="310" height="130" rx="12" fill="#fff4d6" stroke="#9a6700" stroke-width="2.5"/><text x="1050" y="301" text-anchor="middle" font-size="27" font-weight="600" fill="#17212b"><tspan x="1050" dy="0">Select ONE</tspan><tspan x="1050" dy="34">Travel Style</tspan></text></g>
  <line x1="1205" y1="310" x2="1295" y2="310" stroke="#52616f" stroke-width="3"  marker-end="url(#arrow)"/>
  <g><rect x="1295" y="245" width="245" height="130" rx="12" fill="#eaf2fb" stroke="#2764a5" stroke-width="2.5"/><text x="1417.5" y="301" text-anchor="middle" font-size="27" font-weight="600" fill="#17212b"><tspan x="1417.5" dy="0">LLM-Assisted</tspan><tspan x="1417.5" dy="34">Drafting</tspan></text></g>
  <line x1="1417" y1="375" x2="1417" y2="490" stroke="#52616f" stroke-width="3"  marker-end="url(#arrow)"/>
  <g><rect x="1230" y="490" width="310" height="120" rx="12" fill="#f5f7f8" stroke="#52616f" stroke-width="2.5"/><text x="1385" y="541" text-anchor="middle" font-size="27" font-weight="600" fill="#17212b"><tspan x="1385" dy="0">Deterministic</tspan><tspan x="1385" dy="34">Validation</tspan></text></g>
  <line x1="1230" y1="550" x2="1135" y2="550" stroke="#52616f" stroke-width="3"  marker-end="url(#arrow)"/>
  <g><rect x="835" y="490" width="300" height="120" rx="12" fill="#fbecec" stroke="#a23a3a" stroke-width="2.5"/><text x="985" y="541" text-anchor="middle" font-size="27" font-weight="600" fill="#17212b"><tspan x="985" dy="0">Hard Budget</tspan><tspan x="985" dy="34">Validation</tspan></text></g>
  <line x1="835" y1="550" x2="740" y2="550" stroke="#52616f" stroke-width="3"  marker-end="url(#arrow)"/>
  <g><rect x="415" y="490" width="325" height="120" rx="12" fill="#eaf2fb" stroke="#2764a5" stroke-width="2.5"/><text x="577.5" y="541" text-anchor="middle" font-size="27" font-weight="600" fill="#17212b"><tspan x="577.5" dy="0">Optional Rainy-Day</tspan><tspan x="577.5" dy="34">Contingency</tspan></text></g>
  <line x1="577" y1="610" x2="577" y2="680" stroke="#52616f" stroke-width="3"  marker-end="url(#arrow)"/>
  <g><rect x="415" y="680" width="325" height="120" rx="12" fill="#e8f5f1" stroke="#237a66" stroke-width="2.5"/><text x="577.5" y="731" text-anchor="middle" font-size="27" font-weight="600" fill="#17212b"><tspan x="577.5" dy="0">Backup Feasibility /</tspan><tspan x="577.5" dy="34">Budget Recheck</tspan></text></g>
  <line x1="740" y1="740" x2="860" y2="740" stroke="#52616f" stroke-width="3"  marker-end="url(#arrow)"/>
  <g><rect x="860" y="680" width="430" height="120" rx="12" fill="#e8f5f1" stroke="#237a66" stroke-width="2.5"/><text x="1075" y="731" text-anchor="middle" font-size="27" font-weight="600" fill="#17212b"><tspan x="1075" dy="0">ONE Validated Itinerary</tspan><tspan x="1075" dy="34">and Workspace</tspan></text></g>
  <text x="800" y="850" text-anchor="middle" font-size="23" font-weight="400" fill="#52616f"><tspan x="800" dy="0">Grounded facts and deterministic controls remain outside unrestricted LLM authority.</tspan></text>

  </svg>